<?xml version="1.0" encoding="UTF-8"?>
<svg xmlns="http://www.w3.org/2000/svg" xmlns:xlink="http://www.w3.org/1999/xlink" width="375pt" height="374.999991pt" viewBox="0 0 375 374.999991" version="1.2">
<defs>
<clipPath id="clip1">
  <path d="M 268 168 L 317.640625 168 L 317.640625 341 L 268 341 Z M 268 168 "/>
</clipPath>
<clipPath id="clip2">
  <path d="M 47 165 L 140 165 L 140 341.660156 L 47 341.660156 Z M 47 165 "/>
</clipPath>
<clipPath id="clip3">
  <path d="M 79 33.410156 L 307 33.410156 L 307 239 L 79 239 Z M 79 33.410156 "/>
</clipPath>
</defs>
<g id="surface1">
<g clip-path="url(#clip1)" clip-rule="nonzero">
<path style=" stroke:none;fill-rule:nonzero;fill:rgb(100%,100%,100%);fill-opacity:1;" d="M 306.332031 179.398438 C 306.332031 200.21875 300.03125 220.195312 288.105469 237.203125 L 269.542969 263.664062 C 268.910156 264.570312 268.570312 265.644531 268.570312 266.757812 L 268.570312 340.582031 L 279.359375 340.582031 L 279.359375 268.441406 L 296.953125 243.394531 C 310.144531 224.574219 317.117188 202.449219 317.117188 179.398438 L 317.117188 168.136719 L 306.332031 168.136719 L 306.332031 179.398438 "/>
</g>
<g clip-path="url(#clip2)" clip-rule="nonzero">
<path style=" stroke:none;fill-rule:nonzero;fill:rgb(100%,100%,100%);fill-opacity:1;" d="M 128.324219 308.25 L 85.171875 308.25 L 85.171875 232.804688 C 85.171875 229.835938 82.75 227.414062 79.777344 227.414062 L 62.207031 227.414062 L 95.222656 170.851562 L 85.910156 165.421875 L 48.152344 230.089844 C 47.183594 231.75 47.160156 233.816406 48.132812 235.476562 C 49.101562 237.160156 50.871094 238.191406 52.808594 238.191406 L 74.386719 238.191406 L 74.386719 313.640625 C 74.386719 316.605469 76.808594 319.027344 79.777344 319.027344 L 123.902344 319.027344 L 128.429688 341.636719 L 139.007812 339.53125 L 133.613281 312.585938 C 133.109375 310.058594 130.898438 308.25 128.324219 308.25 "/>
</g>
<g clip-path="url(#clip3)" clip-rule="nonzero">
<path style=" stroke:none;fill-rule:nonzero;fill:rgb(100%,100%,100%);fill-opacity:1;" d="M 251.589844 170.492188 L 286.335938 158.917969 L 289.261719 170.640625 L 264.253906 183.125 Z M 235.679688 189.691406 L 217.6875 189.691406 L 207.972656 173.523438 L 239.367188 173.523438 L 252.242188 186.386719 Z M 230.8125 223.203125 L 220.027344 225.898438 L 220.027344 200.46875 L 230.8125 200.46875 Z M 220.027344 137.066406 L 232.878906 162.746094 L 207.171875 162.746094 Z M 176.914062 134.75 L 210.816406 131.359375 L 197.269531 158.472656 Z M 158.078125 162.746094 L 167.621094 140.496094 L 186.734375 162.746094 Z M 148.871094 156.875 L 134.058594 134.664062 L 137.429688 117.804688 L 159.363281 132.414062 Z M 120.886719 157.84375 L 110.878906 141.191406 L 125.4375 141.191406 L 138.503906 160.789062 Z M 94.695312 114.246094 L 127.144531 114.246094 L 123.902344 130.414062 L 104.410156 130.414062 Z M 111.660156 85.511719 L 123.648438 103.46875 L 96.699219 103.46875 Z M 165.496094 91.699219 L 161.808594 121.089844 L 137.597656 104.984375 L 123.691406 84.101562 Z M 139.113281 50.210938 L 156.285156 58.800781 L 163.492188 80.375 L 116.253906 71.789062 L 113.34375 63.09375 Z M 169.960938 44.191406 L 189.285156 44.191406 L 172.722656 73.976562 L 166.378906 54.96875 Z M 198.871094 49.136719 L 204.558594 57.683594 L 212.101562 72.753906 L 182.015625 79.429688 Z M 206.054688 121.003906 L 172.28125 124.371094 L 175.652344 97.363281 Z M 219.898438 98.207031 L 216.445312 115.425781 L 183.847656 90.082031 L 216.0625 82.921875 Z M 225.417969 55.261719 L 252.390625 64.230469 L 252.390625 83.429688 L 229.234375 91.132812 L 225.25 75.21875 C 225.167969 74.839844 225.019531 74.460938 224.851562 74.101562 L 216.84375 58.125 Z M 261.914062 99.046875 L 280.6875 117.824219 L 258.773438 127.214844 Z M 284.753906 92.691406 L 284.753906 106.625 L 270.804688 92.691406 Z M 226.242188 121.425781 L 230.097656 102.207031 L 251.484375 95.089844 L 247.777344 128.582031 Z M 250.472656 140.832031 L 274.976562 151.335938 L 244.339844 161.546875 L 230.667969 134.246094 Z M 294.445312 135.800781 L 288.148438 145.253906 L 266.085938 135.800781 L 288.148438 126.351562 Z M 297.964844 178.347656 C 300.21875 177.210938 301.398438 174.660156 300.769531 172.21875 L 295.964844 152.980469 L 305.425781 138.792969 C 306.625 136.980469 306.625 134.625 305.425781 132.8125 L 295.542969 118.015625 L 295.542969 87.300781 C 295.542969 84.332031 293.121094 81.914062 290.148438 81.914062 L 263.179688 81.914062 L 263.179688 60.355469 C 263.179688 58.042969 261.683594 55.976562 259.492188 55.242188 L 227.125 44.464844 C 226.007812 44.105469 224.828125 44.105469 223.710938 44.464844 L 211.429688 48.546875 L 202.9375 35.8125 C 201.945312 34.316406 200.261719 33.410156 198.449219 33.410156 L 166.085938 33.410156 C 163.765625 33.410156 161.703125 34.90625 160.964844 37.09375 L 157.53125 47.367188 L 141.539062 39.367188 C 140 38.609375 138.230469 38.609375 136.691406 39.367188 L 104.328125 55.535156 C 101.925781 56.734375 100.785156 59.515625 101.628906 62.0625 L 106.074219 75.386719 L 81.023438 105.40625 C 79.570312 107.171875 79.359375 109.65625 80.558594 111.636719 L 112.921875 165.527344 C 113.722656 166.875 115.09375 167.800781 116.652344 168.050781 L 149.015625 173.441406 C 149.101562 173.460938 149.207031 173.441406 149.3125 173.441406 C 149.5 173.460938 149.691406 173.523438 149.902344 173.523438 L 195.394531 173.523438 L 209.238281 196.574219 L 209.238281 232.804688 C 209.238281 234.46875 209.996094 236.023438 211.324219 237.054688 C 212.269531 237.792969 213.453125 238.191406 214.632812 238.191406 C 215.074219 238.191406 215.496094 238.128906 215.9375 238.023438 L 237.515625 232.636719 C 239.917969 232.046875 241.601562 229.898438 241.601562 227.414062 L 241.601562 199.5 L 264.230469 194.976562 L 264.210938 194.851562 C 264.675781 194.746094 265.136719 194.722656 265.601562 194.511719 L 297.964844 178.347656 "/>
</g>
</g>
</svg>
