<?xml version="1.0" encoding="UTF-8"?>
<svg xmlns="http://www.w3.org/2000/svg" xmlns:xlink="http://www.w3.org/1999/xlink" width="375pt" height="374.999991pt" viewBox="0 0 375 374.999991" version="1.2">
<defs>
<clipPath id="clip1">
  <path d="M 38 157 L 135 157 L 135 343.203125 L 38 343.203125 Z M 38 157 "/>
</clipPath>
<clipPath id="clip2">
  <path d="M 72 17.703125 L 312 17.703125 L 312 234 L 72 234 Z M 72 17.703125 "/>
</clipPath>
</defs>
<g id="surface1">
<path style=" stroke:none;fill-rule:nonzero;fill:rgb(100%,100%,100%);fill-opacity:1;" d="M 317.007812 159.964844 L 317.007812 171.859375 C 317.007812 194.863281 309.933594 217.292969 296.726562 236.144531 L 277.15625 264.109375 L 277.15625 342.0625 L 129.136719 342.0625 L 123.445312 313.609375 L 72.207031 313.609375 L 72.207031 228.253906 L 43.742188 228.253906 L 83.59375 159.964844 L 317.007812 159.964844 "/>
<path style=" stroke:none;fill-rule:nonzero;fill:rgb(29.40979%,75.289917%,79.219055%);fill-opacity:1;" d="M 294.234375 74.609375 L 294.234375 108.75 L 260.078125 74.609375 Z M 294.234375 74.609375 "/>
<path style=" stroke:none;fill-rule:nonzero;fill:rgb(29.40979%,75.289917%,79.219055%);fill-opacity:1;" d="M 237.304688 188.417969 L 237.304688 222.5625 L 214.53125 228.253906 L 214.53125 188.417969 L 237.304688 188.417969 "/>
<path style=" stroke:none;fill-rule:nonzero;fill:rgb(67.059326%,85.879517%,89.019775%);fill-opacity:1;" d="M 265.769531 182.726562 L 237.304688 188.417969 L 214.53125 188.417969 L 197.453125 159.964844 L 242.996094 159.964844 L 265.769531 182.726562 "/>
<path style=" stroke:none;fill-rule:nonzero;fill:rgb(4.708862%,38.42926%,67.059326%);fill-opacity:1;" d="M 294.234375 108.75 L 305.621094 125.824219 L 294.234375 142.894531 L 254.382812 125.824219 L 294.234375 108.75 "/>
<path style=" stroke:none;fill-rule:nonzero;fill:rgb(29.40979%,75.289917%,79.219055%);fill-opacity:1;" d="M 208.839844 40.464844 L 220.226562 63.226562 L 168.988281 74.609375 L 197.453125 23.390625 L 208.839844 40.464844 "/>
<path style=" stroke:none;fill-rule:nonzero;fill:rgb(29.40979%,75.289917%,79.219055%);fill-opacity:1;" d="M 129.136719 97.371094 L 123.445312 125.824219 L 94.980469 125.824219 L 77.902344 97.371094 L 129.136719 97.371094 "/>
<path style=" stroke:none;fill-rule:nonzero;fill:rgb(4.708862%,38.42926%,67.059326%);fill-opacity:1;" d="M 294.234375 108.75 L 254.382812 125.824219 L 260.078125 74.609375 Z M 294.234375 108.75 "/>
<path style=" stroke:none;fill-rule:nonzero;fill:rgb(29.40979%,75.289917%,79.219055%);fill-opacity:1;" d="M 294.234375 142.894531 L 299.929688 165.65625 L 265.769531 182.726562 L 242.996094 159.964844 L 294.234375 142.894531 "/>
<path style=" stroke:none;fill-rule:nonzero;fill:rgb(4.708862%,38.42926%,67.059326%);fill-opacity:1;" d="M 220.226562 114.441406 L 163.296875 120.132812 L 168.988281 74.609375 Z M 220.226562 114.441406 "/>
<path style=" stroke:none;fill-rule:nonzero;fill:rgb(4.708862%,38.42926%,67.059326%);fill-opacity:1;" d="M 197.453125 23.390625 L 168.988281 74.609375 L 157.601562 40.464844 L 163.296875 23.390625 L 197.453125 23.390625 "/>
<path style=" stroke:none;fill-rule:nonzero;fill:rgb(4.708862%,38.42926%,67.059326%);fill-opacity:1;" d="M 220.226562 114.441406 L 242.996094 159.964844 L 197.453125 159.964844 Z M 220.226562 114.441406 "/>
<path style=" stroke:none;fill-rule:nonzero;fill:rgb(29.40979%,75.289917%,79.219055%);fill-opacity:1;" d="M 220.226562 114.441406 L 197.453125 159.964844 L 163.296875 120.132812 Z M 220.226562 114.441406 "/>
<path style=" stroke:none;fill-rule:nonzero;fill:rgb(29.40979%,75.289917%,79.219055%);fill-opacity:1;" d="M 163.296875 120.132812 L 197.453125 159.964844 L 146.21875 159.964844 Z M 163.296875 120.132812 "/>
<path style=" stroke:none;fill-rule:nonzero;fill:rgb(29.40979%,75.289917%,79.219055%);fill-opacity:1;" d="M 260.078125 74.609375 L 254.382812 125.824219 L 220.226562 114.441406 L 225.917969 85.988281 L 260.078125 74.609375 "/>
<path style=" stroke:none;fill-rule:nonzero;fill:rgb(67.059326%,85.879517%,89.019775%);fill-opacity:1;" d="M 294.234375 142.894531 L 242.996094 159.964844 L 220.226562 114.441406 L 254.382812 125.824219 L 294.234375 142.894531 "/>
<path style=" stroke:none;fill-rule:nonzero;fill:rgb(4.708862%,38.42926%,67.059326%);fill-opacity:1;" d="M 106.367188 63.226562 L 129.136719 97.371094 L 77.902344 97.371094 Z M 106.367188 63.226562 "/>
<path style=" stroke:none;fill-rule:nonzero;fill:rgb(4.708862%,38.42926%,67.059326%);fill-opacity:1;" d="M 260.078125 46.15625 L 260.078125 74.609375 L 225.917969 85.988281 L 220.226562 63.226562 L 208.839844 40.464844 L 225.917969 34.773438 L 260.078125 46.15625 "/>
<path style=" stroke:none;fill-rule:nonzero;fill:rgb(67.059326%,85.879517%,89.019775%);fill-opacity:1;" d="M 220.226562 63.226562 L 225.917969 85.988281 L 220.226562 114.441406 L 168.988281 74.609375 L 220.226562 63.226562 "/>
<path style=" stroke:none;fill-rule:nonzero;fill:rgb(67.059326%,85.879517%,89.019775%);fill-opacity:1;" d="M 123.445312 125.824219 L 146.21875 159.964844 L 112.058594 154.273438 L 94.980469 125.824219 L 123.445312 125.824219 "/>
<path style=" stroke:none;fill-rule:nonzero;fill:rgb(67.059326%,85.879517%,89.019775%);fill-opacity:1;" d="M 157.601562 40.464844 L 168.988281 74.609375 L 106.367188 63.226562 L 100.671875 46.15625 L 134.832031 29.082031 L 157.601562 40.464844 "/>
<path style=" stroke:none;fill-rule:nonzero;fill:rgb(29.40979%,75.289917%,79.219055%);fill-opacity:1;" d="M 168.988281 74.609375 L 163.296875 120.132812 L 129.136719 97.371094 L 106.367188 63.226562 L 168.988281 74.609375 "/>
<path style=" stroke:none;fill-rule:nonzero;fill:rgb(4.708862%,38.42926%,67.059326%);fill-opacity:1;" d="M 163.296875 120.132812 L 146.21875 159.964844 L 123.445312 125.824219 L 129.136719 97.371094 L 163.296875 120.132812 "/>
<g clip-path="url(#clip1)" clip-rule="nonzero">
<path style=" stroke:none;fill-rule:nonzero;fill:rgb(0%,0%,0%);fill-opacity:1;" d="M 123.445312 307.921875 L 77.902344 307.921875 L 77.902344 228.253906 C 77.902344 225.117188 75.34375 222.5625 72.207031 222.5625 L 53.660156 222.5625 L 88.507812 162.832031 L 78.679688 157.097656 L 38.828125 225.386719 C 37.804688 227.140625 37.785156 229.320312 38.804688 231.074219 C 39.828125 232.855469 41.699219 233.941406 43.742188 233.941406 L 66.515625 233.941406 L 66.515625 313.609375 C 66.515625 316.746094 69.074219 319.300781 72.207031 319.300781 L 118.773438 319.300781 L 123.554688 343.175781 L 134.71875 340.953125 L 129.027344 312.5 C 128.492188 309.832031 126.15625 307.921875 123.445312 307.921875 "/>
</g>
<path style=" stroke:none;fill-rule:nonzero;fill:rgb(0%,0%,0%);fill-opacity:1;" d="M 311.3125 171.859375 C 311.3125 193.796875 304.664062 214.914062 292.054688 232.875 L 272.484375 260.839844 C 271.820312 261.796875 271.460938 262.929688 271.460938 264.109375 L 271.460938 342.0625 L 282.847656 342.0625 L 282.847656 265.886719 L 301.394531 239.410156 C 315.339844 219.515625 322.699219 196.152344 322.699219 171.859375 L 322.699219 159.964844 L 311.3125 159.964844 L 311.3125 171.859375 "/>
<g clip-path="url(#clip2)" clip-rule="nonzero">
<path style=" stroke:none;fill-rule:nonzero;fill:rgb(0%,0%,0%);fill-opacity:1;" d="M 253.539062 162.457031 L 290.210938 150.230469 L 293.300781 162.609375 L 266.902344 175.792969 Z M 236.75 182.726562 L 217.757812 182.726562 L 207.503906 165.65625 L 240.640625 165.65625 L 254.226562 179.238281 Z M 220.226562 220.960938 L 220.226562 194.109375 L 231.613281 194.109375 L 231.613281 218.117188 Z M 105.03125 131.511719 L 120.398438 131.511719 L 134.1875 152.207031 L 115.59375 149.097656 Z M 87.953125 103.058594 L 122.199219 103.058594 L 118.773438 120.132812 L 98.203125 120.132812 Z M 105.855469 72.71875 L 118.507812 91.679688 L 90.066406 91.679688 Z M 134.832031 35.441406 L 152.957031 44.507812 L 160.5625 67.292969 L 110.703125 58.226562 L 107.632812 49.042969 Z M 187.78125 29.082031 L 170.300781 60.535156 L 163.605469 40.464844 L 167.386719 29.082031 Z M 225.917969 40.773438 L 254.382812 50.246094 L 254.382812 70.515625 L 229.945312 78.652344 L 225.742188 61.847656 C 225.652344 61.449219 225.496094 61.046875 225.320312 60.671875 L 216.867188 43.796875 Z M 288.542969 95.011719 L 273.820312 80.296875 L 288.542969 80.296875 Z M 245.890625 153.007812 L 231.457031 124.175781 L 252.359375 131.136719 L 278.222656 142.226562 Z M 220.226562 127.15625 L 233.792969 154.273438 L 206.660156 154.273438 Z M 164.917969 130.78125 L 185.089844 154.273438 L 154.84375 154.273438 Z M 162.671875 79.253906 L 158.78125 110.285156 L 133.230469 93.28125 L 118.550781 71.230469 Z M 216.046875 69.984375 L 220.09375 86.121094 L 216.445312 104.304688 L 182.042969 77.542969 Z M 210.507812 121.132812 L 196.207031 149.761719 L 174.726562 124.710938 Z M 173.390625 85.234375 L 205.480469 110.195312 L 169.835938 113.753906 Z M 249.515625 118.199219 L 226.785156 110.640625 L 230.855469 90.34375 L 253.425781 82.832031 Z M 264.433594 87.011719 L 284.25 106.839844 L 261.121094 116.753906 Z M 197.898438 34.308594 L 203.902344 43.332031 L 211.863281 59.246094 L 180.109375 66.292969 Z M 129.492188 124.621094 L 133.050781 106.816406 L 156.203125 122.242188 L 145.128906 148.074219 Z M 268.839844 125.824219 L 292.121094 115.839844 L 298.769531 125.824219 L 292.121094 135.804688 Z M 302.484375 170.746094 C 304.863281 169.546875 306.109375 166.855469 305.441406 164.277344 L 300.371094 143.960938 L 310.359375 128.980469 C 311.625 127.066406 311.625 124.578125 310.359375 122.664062 L 299.929688 107.039062 L 299.929688 74.609375 C 299.929688 71.472656 297.371094 68.917969 294.234375 68.917969 L 265.769531 68.917969 L 265.769531 46.15625 C 265.769531 43.710938 264.191406 41.53125 261.878906 40.753906 L 227.71875 29.371094 C 226.542969 28.992188 225.296875 28.992188 224.117188 29.371094 L 211.152344 33.683594 L 202.191406 20.234375 C 201.144531 18.65625 199.367188 17.703125 197.453125 17.703125 L 163.296875 17.703125 C 160.851562 17.703125 158.671875 19.28125 157.890625 21.59375 L 154.265625 32.441406 L 137.386719 23.992188 C 135.765625 23.191406 133.898438 23.191406 132.273438 23.992188 L 98.117188 41.0625 C 95.582031 42.332031 94.378906 45.265625 95.269531 47.957031 L 99.960938 62.027344 L 73.519531 93.722656 C 71.984375 95.589844 71.761719 98.214844 73.03125 100.304688 L 107.1875 157.210938 C 108.035156 158.632812 109.480469 159.609375 111.125 159.875 L 145.28125 165.566406 C 145.371094 165.589844 145.484375 165.566406 145.59375 165.566406 C 145.792969 165.589844 145.996094 165.65625 146.21875 165.65625 L 194.230469 165.65625 L 208.839844 189.996094 L 208.839844 228.253906 C 208.839844 230.007812 209.640625 231.652344 211.042969 232.742188 C 212.042969 233.519531 213.289062 233.941406 214.53125 233.941406 C 215 233.941406 215.445312 233.875 215.910156 233.765625 L 238.683594 228.074219 C 241.21875 227.453125 242.996094 225.183594 242.996094 222.5625 L 242.996094 193.085938 L 266.882812 188.308594 L 266.859375 188.175781 C 267.347656 188.0625 267.839844 188.039062 268.328125 187.820312 L 302.484375 170.746094 "/>
</g>
</g>
</svg>
