<?xml version="1.0" encoding="UTF-8"?>
<svg xmlns="http://www.w3.org/2000/svg" xmlns:xlink="http://www.w3.org/1999/xlink" width="224.87999pt" height="60pt" viewBox="0 0 224.87999 60" version="1.2">
<defs>
<clipPath id="clip1">
  <path d="M 52 0.015625 L 61.871094 0.015625 L 61.871094 33 L 52 33 Z M 52 0.015625 "/>
</clipPath>
<clipPath id="clip2">
  <path d="M 10.898438 0.015625 L 29 0.015625 L 29 33.085938 L 10.898438 33.085938 Z M 10.898438 0.015625 "/>
</clipPath>
<clipPath id="clip3">
  <path d="M 17 0.015625 L 60 0.015625 L 60 14 L 17 14 Z M 17 0.015625 "/>
</clipPath>
<clipPath id="clip4">
  <path d="M 131 17 L 141 17 L 141 51.449219 L 131 51.449219 Z M 131 17 "/>
</clipPath>
<clipPath id="clip5">
  <path d="M 88.597656 17 L 107 17 L 107 51.449219 L 88.597656 51.449219 Z M 88.597656 17 "/>
</clipPath>
<clipPath id="clip6">
  <path d="M 94 0.015625 L 139 0.015625 L 139 32 L 94 32 Z M 94 0.015625 "/>
</clipPath>
<clipPath id="clip7">
  <path d="M 204 34 L 214.492188 34 L 214.492188 59.984375 L 204 59.984375 Z M 204 34 "/>
</clipPath>
<clipPath id="clip8">
  <path d="M 162.019531 33 L 180 33 L 180 59.984375 L 162.019531 59.984375 Z M 162.019531 33 "/>
</clipPath>
<clipPath id="clip9">
  <path d="M 168 8.273438 L 213 8.273438 L 213 49 L 168 49 Z M 168 8.273438 "/>
</clipPath>
</defs>
<g id="surface1">
<path style=" stroke:none;fill-rule:nonzero;fill:rgb(11.759949%,50.588989%,69.018555%);fill-opacity:1;" d="M 2.792969 23.105469 L 70.300781 23.105469 L 70.300781 33.101562 L 2.792969 33.101562 Z M 2.792969 23.105469 "/>
<path style=" stroke:none;fill-rule:nonzero;fill:rgb(67.059326%,85.879517%,89.019775%);fill-opacity:1;" d="M 78.683594 23.105469 L 146.191406 23.105469 L 146.191406 33.101562 L 78.683594 33.101562 Z M 78.683594 23.105469 "/>
<path style=" stroke:none;fill-rule:nonzero;fill:rgb(29.40979%,75.289917%,79.219055%);fill-opacity:1;" d="M 154.570312 23.105469 L 222.082031 23.105469 L 222.082031 33.101562 L 154.570312 33.101562 Z M 154.570312 23.105469 "/>
<g clip-path="url(#clip1)" clip-rule="nonzero">
<path style=" stroke:none;fill-rule:nonzero;fill:rgb(100%,100%,100%);fill-opacity:1;" d="M 59.738281 2.308594 C 59.738281 6.253906 58.554688 10.042969 56.308594 13.269531 L 52.8125 18.289062 C 52.695312 18.460938 52.632812 18.664062 52.632812 18.878906 L 52.632812 32.878906 L 54.664062 32.878906 L 54.664062 19.195312 L 57.976562 14.445312 C 60.457031 10.875 61.769531 6.679688 61.769531 2.308594 L 61.769531 0.171875 L 59.738281 0.171875 L 59.738281 2.308594 "/>
</g>
<g clip-path="url(#clip2)" clip-rule="nonzero">
<path style=" stroke:none;fill-rule:nonzero;fill:rgb(100%,100%,100%);fill-opacity:1;" d="M 26.230469 26.746094 L 18.105469 26.746094 L 18.105469 12.4375 C 18.105469 11.875 17.652344 11.414062 17.089844 11.414062 L 13.78125 11.414062 L 20 0.6875 L 18.246094 -0.34375 L 11.136719 11.921875 C 10.953125 12.238281 10.949219 12.628906 11.132812 12.945312 C 11.316406 13.261719 11.648438 13.457031 12.015625 13.457031 L 16.074219 13.457031 L 16.074219 27.769531 C 16.074219 28.332031 16.53125 28.792969 17.089844 28.792969 L 25.398438 28.792969 L 26.25 33.078125 L 28.242188 32.679688 L 27.226562 27.570312 C 27.128906 27.089844 26.714844 26.746094 26.230469 26.746094 "/>
</g>
<g clip-path="url(#clip3)" clip-rule="nonzero">
<path style=" stroke:none;fill-rule:nonzero;fill:rgb(100%,100%,100%);fill-opacity:1;" d="M 49.433594 0.617188 L 55.976562 -1.578125 L 56.527344 0.644531 L 51.820312 3.011719 Z M 46.441406 4.257812 L 43.050781 4.257812 L 41.222656 1.191406 L 47.132812 1.191406 L 49.558594 3.632812 Z M 45.523438 10.617188 L 43.492188 11.128906 L 43.492188 6.304688 L 45.523438 6.304688 Z M 43.492188 -5.722656 L 45.914062 -0.851562 L 41.074219 -0.851562 Z M 35.378906 -6.164062 L 41.757812 -6.804688 L 39.207031 -1.664062 Z M 31.832031 -0.851562 L 33.628906 -5.070312 L 37.226562 -0.851562 Z M 30.097656 -1.964844 L 27.308594 -6.179688 L 27.945312 -9.375 L 32.074219 -6.605469 Z M 24.828125 -1.78125 L 22.945312 -4.941406 L 25.6875 -4.941406 L 28.144531 -1.222656 Z M 19.898438 -10.050781 L 26.007812 -10.050781 L 25.398438 -6.984375 L 21.726562 -6.984375 Z M 23.09375 -15.5 L 25.351562 -12.097656 L 20.277344 -12.097656 Z M 33.226562 -14.328125 L 32.53125 -8.753906 L 27.976562 -11.808594 L 25.359375 -15.769531 Z M 28.261719 -22.199219 L 31.492188 -20.570312 L 32.851562 -16.476562 L 23.957031 -18.105469 L 23.410156 -19.753906 Z M 34.066406 -23.339844 L 37.707031 -23.339844 L 34.585938 -17.691406 L 33.394531 -21.296875 Z M 39.511719 -22.402344 L 40.582031 -20.78125 L 42 -17.921875 L 36.335938 -16.65625 Z M 40.863281 -8.769531 L 34.503906 -8.128906 L 35.140625 -13.253906 Z M 43.46875 -13.09375 L 42.820312 -9.828125 L 36.683594 -14.636719 L 42.746094 -15.992188 Z M 44.507812 -21.238281 L 49.585938 -19.539062 L 49.585938 -15.898438 L 45.226562 -14.433594 L 44.476562 -17.453125 C 44.460938 -17.527344 44.433594 -17.597656 44.402344 -17.664062 L 42.894531 -20.695312 Z M 51.378906 -12.933594 L 54.914062 -9.371094 L 50.789062 -7.589844 Z M 55.679688 -14.140625 L 55.679688 -11.496094 L 53.050781 -14.140625 Z M 44.664062 -8.691406 L 45.390625 -12.335938 L 49.414062 -13.683594 L 48.714844 -7.332031 Z M 49.222656 -5.007812 L 53.835938 -3.015625 L 48.070312 -1.078125 L 45.496094 -6.257812 Z M 57.503906 -5.960938 L 56.316406 -4.167969 L 52.164062 -5.960938 L 56.316406 -7.753906 Z M 58.164062 2.105469 C 58.589844 1.890625 58.8125 1.410156 58.691406 0.945312 L 57.789062 -2.703125 L 59.570312 -5.394531 C 59.796875 -5.738281 59.796875 -6.1875 59.570312 -6.53125 L 57.707031 -9.335938 L 57.707031 -15.164062 C 57.707031 -15.726562 57.253906 -16.183594 56.695312 -16.183594 L 51.617188 -16.183594 L 51.617188 -20.273438 C 51.617188 -20.710938 51.335938 -21.105469 50.921875 -21.242188 L 44.828125 -23.289062 C 44.621094 -23.355469 44.398438 -23.355469 44.1875 -23.289062 L 41.875 -22.511719 L 40.277344 -24.929688 C 40.089844 -25.210938 39.773438 -25.382812 39.429688 -25.382812 L 33.339844 -25.382812 C 32.902344 -25.382812 32.511719 -25.101562 32.375 -24.683594 L 31.726562 -22.738281 L 28.71875 -24.253906 C 28.425781 -24.398438 28.09375 -24.398438 27.804688 -24.253906 L 21.710938 -21.1875 C 21.261719 -20.960938 21.046875 -20.433594 21.203125 -19.949219 L 22.042969 -17.421875 L 17.324219 -11.726562 C 17.050781 -11.394531 17.011719 -10.921875 17.238281 -10.546875 L 23.332031 -0.324219 C 23.480469 -0.0703125 23.738281 0.105469 24.03125 0.15625 L 30.125 1.175781 C 30.140625 1.179688 30.160156 1.175781 30.179688 1.175781 C 30.214844 1.179688 30.253906 1.191406 30.292969 1.191406 L 38.855469 1.191406 L 41.460938 5.566406 L 41.460938 12.4375 C 41.460938 12.753906 41.605469 13.046875 41.855469 13.242188 C 42.03125 13.382812 42.253906 13.457031 42.476562 13.457031 C 42.5625 13.457031 42.640625 13.445312 42.722656 13.425781 L 46.785156 12.40625 C 47.238281 12.292969 47.554688 11.886719 47.554688 11.414062 L 47.554688 6.121094 L 51.816406 5.261719 L 51.8125 5.238281 C 51.898438 5.21875 51.984375 5.214844 52.074219 5.171875 L 58.164062 2.105469 "/>
</g>
<g clip-path="url(#clip4)" clip-rule="nonzero">
<path style=" stroke:none;fill-rule:nonzero;fill:rgb(100%,100%,100%);fill-opacity:1;" d="M 138.882812 19.882812 C 138.882812 23.933594 137.660156 27.820312 135.347656 31.128906 L 131.75 36.277344 C 131.628906 36.453125 131.5625 36.660156 131.5625 36.878906 L 131.5625 51.242188 L 133.652344 51.242188 L 133.652344 37.207031 L 137.0625 32.332031 C 139.621094 28.671875 140.972656 24.367188 140.972656 19.882812 L 140.972656 17.691406 L 138.882812 17.691406 L 138.882812 19.882812 "/>
</g>
<g clip-path="url(#clip5)" clip-rule="nonzero">
<path style=" stroke:none;fill-rule:nonzero;fill:rgb(100%,100%,100%);fill-opacity:1;" d="M 104.375 44.949219 L 96.011719 44.949219 L 96.011719 30.273438 C 96.011719 29.695312 95.542969 29.226562 94.964844 29.226562 L 91.558594 29.226562 L 97.960938 18.21875 L 96.15625 17.164062 L 88.835938 29.746094 C 88.648438 30.066406 88.644531 30.46875 88.832031 30.792969 C 89.019531 31.121094 89.363281 31.320312 89.738281 31.320312 L 93.921875 31.320312 L 93.921875 46 C 93.921875 46.578125 94.390625 47.046875 94.964844 47.046875 L 103.519531 47.046875 L 104.398438 51.445312 L 106.449219 51.035156 L 105.402344 45.792969 C 105.304688 45.304688 104.875 44.949219 104.375 44.949219 "/>
</g>
<g clip-path="url(#clip6)" clip-rule="nonzero">
<path style=" stroke:none;fill-rule:nonzero;fill:rgb(100%,100%,100%);fill-opacity:1;" d="M 128.269531 18.152344 L 135.003906 15.898438 L 135.574219 18.179688 L 130.726562 20.609375 Z M 125.1875 21.886719 L 121.699219 21.886719 L 119.816406 18.742188 L 125.902344 18.742188 L 128.398438 21.242188 Z M 124.242188 28.40625 L 122.152344 28.929688 L 122.152344 23.984375 L 124.242188 23.984375 Z M 122.152344 11.648438 L 124.644531 16.644531 L 119.660156 16.644531 Z M 113.796875 11.199219 L 120.367188 10.539062 L 117.742188 15.8125 Z M 110.144531 16.644531 L 111.992188 12.316406 L 115.699219 16.644531 Z M 108.359375 15.5 L 105.488281 11.179688 L 106.140625 7.902344 L 110.394531 10.742188 Z M 102.933594 15.691406 L 100.996094 12.449219 L 103.816406 12.449219 L 106.347656 16.261719 Z M 97.859375 7.207031 L 104.148438 7.207031 L 103.519531 10.355469 L 99.742188 10.355469 Z M 101.144531 1.617188 L 103.46875 5.113281 L 98.246094 5.113281 Z M 111.582031 2.824219 L 110.867188 8.539062 L 106.175781 5.40625 L 103.476562 1.34375 Z M 106.46875 -5.25 L 109.796875 -3.578125 L 111.195312 0.621094 L 102.035156 -1.050781 L 101.472656 -2.742188 Z M 112.449219 -6.421875 L 116.191406 -6.421875 L 112.984375 -0.625 L 111.753906 -4.324219 Z M 118.050781 -5.457031 L 119.152344 -3.796875 L 120.617188 -0.863281 L 114.785156 0.433594 Z M 119.445312 8.523438 L 112.898438 9.179688 L 113.550781 3.925781 Z M 122.128906 4.085938 L 121.457031 7.4375 L 115.140625 2.507812 L 121.382812 1.113281 Z M 123.199219 -4.265625 L 128.425781 -2.523438 L 128.425781 1.214844 L 123.9375 2.710938 L 123.164062 -0.382812 C 123.148438 -0.457031 123.121094 -0.53125 123.085938 -0.601562 L 121.535156 -3.710938 Z M 130.273438 4.25 L 133.910156 7.90625 L 129.664062 9.730469 Z M 134.699219 3.015625 L 134.699219 5.726562 L 131.996094 3.015625 Z M 123.355469 8.605469 L 124.105469 4.867188 L 128.25 3.480469 L 127.53125 9.996094 Z M 128.054688 12.378906 L 132.804688 14.425781 L 126.863281 16.410156 L 124.214844 11.097656 Z M 136.578125 11.402344 L 135.355469 13.242188 L 131.082031 11.402344 L 135.355469 9.5625 Z M 137.261719 19.679688 C 137.695312 19.457031 137.925781 18.960938 137.804688 18.488281 L 136.871094 14.742188 L 138.707031 11.984375 C 138.9375 11.632812 138.9375 11.171875 138.707031 10.820312 L 136.789062 7.941406 L 136.789062 1.964844 C 136.789062 1.390625 136.320312 0.917969 135.746094 0.917969 L 130.515625 0.917969 L 130.515625 -3.277344 C 130.515625 -3.726562 130.226562 -4.128906 129.800781 -4.269531 L 123.527344 -6.367188 C 123.3125 -6.4375 123.082031 -6.4375 122.867188 -6.367188 L 120.484375 -5.574219 L 118.839844 -8.050781 C 118.648438 -8.339844 118.320312 -8.515625 117.96875 -8.515625 L 111.695312 -8.515625 C 111.246094 -8.515625 110.847656 -8.226562 110.703125 -7.800781 L 110.039062 -5.800781 L 106.9375 -7.359375 C 106.640625 -7.503906 106.296875 -7.503906 106 -7.359375 L 99.726562 -4.214844 C 99.257812 -3.980469 99.039062 -3.4375 99.203125 -2.945312 L 100.0625 -0.351562 L 95.207031 5.488281 C 94.925781 5.832031 94.886719 6.316406 95.117188 6.699219 L 101.390625 17.183594 C 101.546875 17.445312 101.8125 17.625 102.113281 17.675781 L 108.386719 18.722656 C 108.402344 18.726562 108.425781 18.722656 108.445312 18.722656 C 108.480469 18.726562 108.519531 18.742188 108.558594 18.742188 L 117.378906 18.742188 L 120.0625 23.226562 L 120.0625 30.273438 C 120.0625 30.597656 120.207031 30.898438 120.464844 31.101562 C 120.648438 31.242188 120.878906 31.320312 121.105469 31.320312 C 121.191406 31.320312 121.273438 31.308594 121.359375 31.289062 L 125.542969 30.242188 C 126.007812 30.125 126.335938 29.707031 126.335938 29.226562 L 126.335938 23.792969 L 130.722656 22.914062 L 130.714844 22.890625 C 130.804688 22.867188 130.894531 22.863281 130.984375 22.824219 L 137.261719 19.679688 "/>
</g>
<g clip-path="url(#clip7)" clip-rule="nonzero">
<path style=" stroke:none;fill-rule:nonzero;fill:rgb(100%,100%,100%);fill-opacity:1;" d="M 212.304688 36.671875 C 212.304688 40.722656 211.082031 44.609375 208.769531 47.917969 L 205.171875 53.066406 C 205.050781 53.242188 204.984375 53.449219 204.984375 53.667969 L 204.984375 68.03125 L 207.074219 68.03125 L 207.074219 53.996094 L 210.484375 49.121094 C 213.042969 45.460938 214.394531 41.15625 214.394531 36.671875 L 214.394531 34.480469 L 212.304688 34.480469 L 212.304688 36.671875 "/>
</g>
<g clip-path="url(#clip8)" clip-rule="nonzero">
<path style=" stroke:none;fill-rule:nonzero;fill:rgb(100%,100%,100%);fill-opacity:1;" d="M 177.800781 61.738281 L 169.433594 61.738281 L 169.433594 47.0625 C 169.433594 46.484375 168.964844 46.015625 168.390625 46.015625 L 164.984375 46.015625 L 171.382812 35.007812 L 169.578125 33.953125 L 162.257812 46.535156 C 162.070312 46.855469 162.066406 47.257812 162.253906 47.582031 C 162.441406 47.910156 162.785156 48.109375 163.160156 48.109375 L 167.34375 48.109375 L 167.34375 62.789062 C 167.34375 63.367188 167.8125 63.835938 168.390625 63.835938 L 176.941406 63.835938 L 177.820312 68.234375 L 179.871094 67.824219 L 178.824219 62.582031 C 178.726562 62.09375 178.296875 61.738281 177.800781 61.738281 "/>
</g>
<g clip-path="url(#clip9)" clip-rule="nonzero">
<path style=" stroke:none;fill-rule:nonzero;fill:rgb(100%,100%,100%);fill-opacity:1;" d="M 201.691406 34.941406 L 208.425781 32.6875 L 208.996094 34.96875 L 204.148438 37.398438 Z M 198.609375 38.675781 L 195.121094 38.675781 L 193.238281 35.53125 L 199.324219 35.53125 L 201.820312 38.03125 Z M 197.664062 45.195312 L 195.574219 45.71875 L 195.574219 40.773438 L 197.664062 40.773438 Z M 195.574219 28.4375 L 198.066406 33.433594 L 193.082031 33.433594 Z M 187.21875 27.984375 L 193.789062 27.328125 L 191.164062 32.601562 Z M 183.566406 33.433594 L 185.417969 29.105469 L 189.121094 33.433594 Z M 181.78125 32.289062 L 178.910156 27.96875 L 179.5625 24.691406 L 183.816406 27.53125 Z M 176.359375 32.480469 L 174.417969 29.238281 L 177.238281 29.238281 L 179.773438 33.050781 Z M 171.28125 23.996094 L 177.570312 23.996094 L 176.941406 27.144531 L 173.164062 27.144531 Z M 174.570312 18.40625 L 176.890625 21.902344 L 171.667969 21.902344 Z M 185.003906 19.613281 L 184.289062 25.328125 L 179.597656 22.195312 L 176.902344 18.132812 Z M 179.890625 11.539062 L 183.21875 13.210938 L 184.617188 17.410156 L 175.457031 15.738281 L 174.894531 14.046875 Z M 185.871094 10.367188 L 189.617188 10.367188 L 186.40625 16.164062 L 185.175781 12.464844 Z M 191.472656 11.332031 L 192.578125 12.992188 L 194.039062 15.925781 L 188.207031 17.222656 Z M 192.867188 25.3125 L 186.320312 25.96875 L 186.972656 20.714844 Z M 195.550781 20.875 L 194.878906 24.226562 L 188.5625 19.296875 L 194.804688 17.902344 Z M 196.621094 12.523438 L 201.847656 14.265625 L 201.847656 18.003906 L 197.359375 19.5 L 196.585938 16.40625 C 196.570312 16.332031 196.542969 16.257812 196.507812 16.1875 L 194.957031 13.078125 Z M 203.695312 21.039062 L 207.332031 24.695312 L 203.085938 26.519531 Z M 208.121094 19.804688 L 208.121094 22.515625 L 205.417969 19.804688 Z M 196.777344 25.394531 L 197.527344 21.65625 L 201.671875 20.269531 L 200.953125 26.785156 Z M 201.476562 29.167969 L 206.226562 31.214844 L 200.289062 33.199219 L 197.636719 27.886719 Z M 210 28.191406 L 208.777344 30.03125 L 204.503906 28.191406 L 208.777344 26.351562 Z M 210.683594 36.46875 C 211.121094 36.246094 211.347656 35.75 211.226562 35.277344 L 210.292969 31.53125 L 212.128906 28.773438 C 212.359375 28.421875 212.359375 27.960938 212.128906 27.609375 L 210.210938 24.730469 L 210.210938 18.753906 C 210.210938 18.179688 209.742188 17.707031 209.167969 17.707031 L 203.9375 17.707031 L 203.9375 13.511719 C 203.9375 13.0625 203.648438 12.660156 203.222656 12.519531 L 196.949219 10.421875 C 196.734375 10.351562 196.503906 10.351562 196.289062 10.421875 L 193.90625 11.214844 L 192.261719 8.738281 C 192.070312 8.449219 191.742188 8.273438 191.390625 8.273438 L 185.117188 8.273438 C 184.667969 8.273438 184.269531 8.5625 184.125 8.988281 L 183.460938 10.988281 L 180.359375 9.429688 C 180.0625 9.28125 179.71875 9.28125 179.421875 9.429688 L 173.148438 12.574219 C 172.679688 12.808594 172.460938 13.351562 172.625 13.84375 L 173.484375 16.4375 L 168.628906 22.277344 C 168.347656 22.621094 168.308594 23.105469 168.539062 23.488281 L 174.8125 33.972656 C 174.96875 34.234375 175.234375 34.414062 175.535156 34.464844 L 181.808594 35.511719 C 181.828125 35.515625 181.847656 35.511719 181.867188 35.511719 C 181.902344 35.515625 181.941406 35.53125 181.980469 35.53125 L 190.800781 35.53125 L 193.484375 40.015625 L 193.484375 47.0625 C 193.484375 47.386719 193.628906 47.6875 193.886719 47.890625 C 194.070312 48.03125 194.300781 48.109375 194.527344 48.109375 C 194.613281 48.109375 194.695312 48.097656 194.78125 48.078125 L 198.964844 47.03125 C 199.429688 46.914062 199.757812 46.496094 199.757812 46.015625 L 199.757812 40.582031 L 204.144531 39.703125 L 204.140625 39.679688 C 204.230469 39.65625 204.320312 39.652344 204.410156 39.613281 L 210.683594 36.46875 "/>
</g>
</g>
</svg>
